<svg id="Layer_1" data-name="Layer 1" xmlns="http://www.w3.org/2000/svg" viewBox="0 0 549.18 553.4"><defs><style>.cls-1,.cls-2{fill:none;stroke-miterlimit:10;}.cls-1{stroke:#221f1f;}.cls-2{stroke:#000;}</style></defs><path class="cls-1" d="M114.1,562" transform="translate(-1.76 -9.1)"/><path class="cls-1" d="M176.9,444.5" transform="translate(-1.76 -9.1)"/><polyline class="cls-1" points="112.34 552.9 0.84 552.9 299.14 0.5 386.64 0.5 524.24 552.9 423.64 552.9 394.34 435.4 197.17 435.4"/><path class="cls-1" d="M252.54,346.84c39.46.06,79.46.06,118.06,0q-.24-1-.51-2,.23,1,.51,2c-9.86-39.07-20.52-77.94-29.69-117.18q-3.87-16.6-7.35-33.3" transform="translate(-1.76 -9.1)"/><path class="cls-2" d="M394.9,346.8,350.7,164.9,253.4,346.8Z" transform="translate(-1.76 -9.1)"/><polyline class="cls-2" points="199.54 435.4 136.74 552.9 25.14 552.9 323.54 0.5 411.04 0.5 548.54 552.9 447.94 552.9 418.64 435.4 199.54 435.4"/></svg>