<?xml version="1.0" encoding="utf-8"?>
<!-- Generator: Adobe Illustrator 24.1.1, SVG Export Plug-In . SVG Version: 6.00 Build 0)  -->
<svg version="1.1" id="Layer_1" xmlns="http://www.w3.org/2000/svg" xmlns:xlink="http://www.w3.org/1999/xlink" x="0px" y="0px"
	 viewBox="0 0 595.3 841.9" style="enable-background:new 0 0 595.3 841.9;" xml:space="preserve">
<style type="text/css">
	.st0{fill:none;stroke:#FFD700;stroke-miterlimit:10;}
</style>
<g>
	<path class="st0" d="M114.1,562"/>
	<path class="st0" d="M176.9,444.5"/>
	<polyline class="st0" points="526,562 425.4,562 396.1,444.5 198.9,444.5 	"/>
	<path class="st0" d="M114.1,562C77,561.9,40,561.9,2.6,562c0.9-1.7,4.6,0,0,0C101,376.9,202,193.9,301,9.9c29,0,58,0,87.5,0"/>
	<path class="st0" d="M252.5,346.8c39.5,0.1,79.5,0.1,118.1,0c-0.2-0.7-0.3-1.4-0.5-2c0.1,0.7,0.3,1.4,0.5,2
		c-9.9-39.1-20.5-77.9-29.7-117.2c-2.6-11.1-5.1-22.2-7.4-33.3"/>
</g>
<g>
	<path class="st0" d="M394.9,346.8l-44.2-181.9l-97.3,181.9H394.9z"/>
	<polyline class="st0" points="201.3,444.5 138.5,562 26.9,562 325.3,9.6 412.8,9.6 550.3,562 449.7,562 420.4,444.5 201.3,444.5 	
		"/>
</g>
</svg>
